<svg width="28" height="28" viewBox="0 0 28 28" fill="none" xmlns="http://www.w3.org/2000/svg">
<path d="M28 14C28 19.18 25.1883 23.6989 21.0078 26.1217C18.9467 27.3156 16.5511 28 14 28C11.4489 28 9.05333 27.3156 6.99222 26.1217C2.81167 23.6989 0 19.18 0 14C0 8.82 2.81167 4.30111 6.99222 1.87833C9.05333 0.684444 11.4489 0 14 0C16.5511 0 18.9467 0.684444 21.0078 1.87833C25.1883 4.30111 28 8.82 28 14Z" fill="white"></path>
<path d="M28 14.0001C28 19.1801 25.1884 23.699 21.0078 26.1217V1.87842C25.1884 4.3012 28 8.82009 28 14.0001Z" fill="#DE0000"></path>
<path d="M6.99222 1.87842V26.1217C2.81167 23.699 0 19.1801 0 14.0001C0 8.82009 2.81167 4.3012 6.99222 1.87842Z" fill="#DE0000"></path>
<path d="M16.2012 16.3333L18.8767 14.0817L18.1106 13.7861L18.6201 11.9467L17.049 12.2655L16.7729 11.515L15.2445 13.1522L15.754 9.81166L14.8401 10.29L13.7979 8.45054C13.7979 8.45054 13.7706 8.38054 13.7356 8.45054L12.6934 10.29L11.7795 9.81166L12.289 13.1522L10.7606 11.515L10.4845 12.2655L8.91341 11.9467L9.42285 13.7861L8.65674 14.0817L11.3323 16.3333L11.0562 17.22L13.4634 16.9361V19.9111H14.0584V16.9361L16.4656 17.22L16.2012 16.3333Z" fill="#DE0000"></path>
<circle cx="14" cy="14" r="13.475" stroke="white" stroke-width="1.05"></circle>
</svg>