<svg width="28" height="28" viewBox="0 0 28 28" fill="none" xmlns="http://www.w3.org/2000/svg">
<path d="M28 13.9961V14C28 15.2094 27.8483 16.38 27.5567 17.5C27.2378 18.7406 26.7517 19.915 26.1256 21C25.3633 22.3183 24.3911 23.5006 23.2556 24.5C22.5633 25.1106 21.8089 25.655 21.0078 26.1217C18.9467 27.3156 16.5511 28 14 28C11.4489 28 9.05333 27.3156 6.99222 26.1217C6.19111 25.655 5.43667 25.1106 4.74444 24.5C3.60889 23.5006 2.63667 22.3183 1.87444 21C1.24833 19.915 0.762222 18.7406 0.443333 17.5C0.151667 16.38 0 15.2094 0 14V13.9961C0 12.88 0.132222 11.795 0.381111 10.7528C0.396667 10.6828 0.412222 10.6089 0.431667 10.5389C0.435556 10.5233 0.439444 10.5117 0.443333 10.4961C0.762222 9.25556 1.24833 8.08111 1.87833 6.99611C2.64056 5.67778 3.61278 4.49556 4.74833 3.49611C5.44056 2.88556 6.19111 2.345 6.99222 1.87833C7.29556 1.70333 7.60278 1.54 7.91778 1.38833C8.39611 1.155 8.89 0.948889 9.39944 0.773889C10.8422 0.272222 12.39 0 14 0C16.5511 0 18.9467 0.684444 21.0078 1.87833C21.8089 2.345 22.5594 2.88556 23.2517 3.49611C24.3872 4.49556 25.3594 5.67778 26.1217 6.99611C26.7517 8.08111 27.2378 9.25556 27.5567 10.4961C27.8444 11.6161 28 12.7867 28 13.9961Z" fill="white"></path>
<path d="M23.2514 3.49611H4.74805C5.44027 2.88556 6.19082 2.345 6.99194 1.87833C7.29527 1.70333 7.60249 1.54 7.91749 1.38833C8.39582 1.155 8.88971 0.948889 9.39916 0.773889C10.8419 0.272222 12.3897 0 13.9997 0C16.5508 0 18.9464 0.684444 21.0075 1.87833C21.8086 2.345 22.5592 2.88556 23.2514 3.49611Z" fill="white"></path>
<path d="M26.1218 6.99609H1.87842C2.64064 5.67776 3.61286 4.49554 4.74842 3.49609H23.2518C24.3873 4.49554 25.3595 5.67776 26.1218 6.99609Z" fill="#DE0000"></path>
<path d="M27.5567 10.4961H0.443359C0.762248 9.25554 1.24836 8.08109 1.87836 6.99609H26.1217C26.7517 8.08109 27.2378 9.25554 27.5567 10.4961Z" fill="white"></path>
<path d="M28 13.9961H0C0 12.88 0.132222 11.795 0.381111 10.7528C0.396667 10.6828 0.412222 10.6089 0.431667 10.5389C0.435556 10.5233 0.439444 10.5116 0.443333 10.4961H27.5567C27.8444 11.6161 28 12.7867 28 13.9961Z" fill="#DE0000"></path>
<path d="M28 13.9961V14C28 15.2094 27.8483 16.38 27.5567 17.5H0.443333C0.151667 16.38 0 15.2094 0 14V13.9961H28Z" fill="white"></path>
<path d="M27.5567 17.5C27.2378 18.7406 26.7517 19.915 26.1256 21H1.87447C1.24836 19.915 0.762248 18.7406 0.443359 17.5H27.5567Z" fill="#DE0000"></path>
<path d="M26.1256 21C25.3634 22.3183 24.3912 23.5006 23.2556 24.5H4.74451C3.60896 23.5006 2.63673 22.3183 1.87451 21H26.1256Z" fill="white"></path>
<path d="M23.2553 24.5C22.563 25.1106 21.8086 25.655 21.0075 26.1217C18.9464 27.3156 16.5508 28 13.9997 28C11.4486 28 9.05303 27.3156 6.99192 26.1217C6.19081 25.655 5.43636 25.1106 4.74414 24.5H23.2553Z" fill="#DE0000"></path>
<path d="M14 0V13.9961H0C0 12.88 0.132222 11.795 0.381111 10.7528C0.396667 10.6828 0.412222 10.6089 0.431667 10.5389C0.435556 10.5233 0.439444 10.5117 0.443333 10.4961C0.762222 9.25556 1.24833 8.08111 1.87833 6.99611C2.64056 5.67778 3.61278 4.49556 4.74833 3.49611C5.44056 2.88556 6.19111 2.345 6.99222 1.87833C7.29556 1.70333 7.60278 1.54 7.91778 1.38833C8.39611 1.155 8.89 0.948889 9.39944 0.773889C10.8422 0.272222 12.39 0 14 0Z" fill="#0052B4"></path>
<path d="M11.0834 9.32935L11.4761 10.5388H12.7478L11.7172 11.2855L12.11 12.4949L11.0795 11.7482L10.0489 12.4949L10.4417 11.2855L9.41113 10.5388H10.6828L11.0834 9.32935Z" fill="white"></path>
<path d="M2.38413 11.2855L2.7769 12.4949L1.75024 11.7482L0.719681 12.4949L1.11246 11.2855L0.381348 10.7527C0.396903 10.6827 0.412459 10.6088 0.431903 10.5388H1.35746L1.37301 10.496L1.75024 9.32935L2.12746 10.496L2.14301 10.5388H3.41468L2.38413 11.2855Z" fill="white"></path>
<path d="M11.0829 2.32935L11.4757 3.53879H12.7473L11.7168 4.28546L12.1096 5.4949L11.079 4.74823L10.0485 5.4949L10.4412 4.28546L9.41846 3.53879H10.6901L11.0829 2.32935Z" fill="white"></path>
<path d="M6.41689 2.32935L6.80966 3.53879H8.08133L7.05077 4.28546L7.44355 5.4949L6.413 4.74823L5.38244 5.4949L5.77522 4.28546L4.75244 3.53879H6.02411L6.41689 2.32935Z" fill="white"></path>
<path d="M8.75035 5.82935L9.14313 7.03879H10.4148L9.38424 7.78546L9.77701 8.9949L8.74646 8.24824L7.7159 8.9949L8.10868 7.78546L7.07812 7.03879H8.34979L8.75035 5.82935Z" fill="white"></path>
<path d="M9.77646 1.99504L8.74979 1.24837L7.71924 1.99504L7.91757 1.38837C8.39591 1.15504 8.88979 0.948926 9.39924 0.773926L9.38368 0.785592L9.77646 1.99504Z" fill="white"></path>
<path d="M4.0829 5.82935L4.47568 7.03879H5.74735L4.71679 7.78546L5.10957 8.9949L4.07901 8.24824L3.04846 8.9949L3.44124 7.78546L2.41846 7.03879H3.69012L4.0829 5.82935Z" fill="white"></path>
<path d="M6.41636 9.32935L6.80914 10.5388H8.08081L7.05025 11.2855L7.44303 12.4949L6.41247 11.7482L5.38192 12.4949L5.7747 11.2855L4.74414 10.5388H6.01581L6.41636 9.32935Z" fill="white"></path>
<circle cx="14" cy="14" r="13.475" stroke="white" stroke-width="1.05"></circle>
</svg>