<svg width="28" height="28" viewBox="0 0 28 28" fill="none" xmlns="http://www.w3.org/2000/svg">
<path d="M27.2025 13.6012C27.2025 14.2549 27.1571 14.8971 27.0665 15.5281C27.0476 15.6679 27.0249 15.8039 26.9985 15.9399C26.8662 16.722 26.6622 17.4814 26.3977 18.2068C26.1182 18.9926 25.7668 19.7445 25.3474 20.4547C25.1434 20.8099 24.9205 21.1537 24.6787 21.4862C24.214 22.1436 23.6888 22.7556 23.1145 23.3223C22.733 23.6964 22.3287 24.0477 21.9018 24.3764C21.4295 24.7391 20.9308 25.0754 20.4094 25.3776C19.65 25.8197 18.8415 26.1862 17.999 26.4771C17.2698 26.7227 16.5104 26.9116 15.7321 27.0362C15.0369 27.1458 14.3266 27.2025 13.6012 27.2025C12.7814 27.2025 11.9804 27.1307 11.1983 26.9909C10.4163 26.8511 9.66066 26.6433 8.93148 26.3788C8.2023 26.1106 7.50335 25.7857 6.8384 25.4003C6.82329 25.3965 6.80817 25.3852 6.79306 25.3776C6.45303 25.1812 6.12056 24.9658 5.79942 24.7391C5.13824 24.2782 4.52241 23.7568 3.95191 23.1863C3.5741 22.8085 3.21896 22.4043 2.89026 21.9811C2.00618 20.8552 1.2959 19.582 0.80474 18.2068C0.540271 17.4814 0.336253 16.722 0.204019 15.9399C0.0680062 15.1805 0 14.3984 0 13.6012C0 12.8532 0.0604499 12.1202 0.177572 11.4061C0.30225 10.6241 0.494934 9.86845 0.751846 9.13927C1.00876 8.39876 1.32612 7.68848 1.70393 7.01219C1.90039 6.64949 2.11953 6.29813 2.34999 5.9581C2.80337 5.28937 3.31719 4.66598 3.88391 4.0917C4.25416 3.70634 4.65087 3.34741 5.07024 3.01116C5.61051 2.5729 6.18856 2.1762 6.79306 1.82483C7.46934 1.43191 8.18719 1.09566 8.93148 0.82363C9.66066 0.559162 10.4163 0.351365 11.1983 0.211575C11.527 0.154903 11.8557 0.105787 12.192 0.0717843C12.6529 0.0264468 13.1252 0 13.6012 0C14.0773 0 14.5495 0.0264468 15.0105 0.0717843C15.2523 0.0982311 15.4941 0.128456 15.7321 0.166237C16.5104 0.290915 17.2698 0.479821 17.999 0.725399C18.7962 1.0012 19.5631 1.34501 20.2847 1.75305C20.3263 1.77572 20.3678 1.80216 20.4094 1.82483C20.723 2.00618 21.029 2.20264 21.3275 2.41044C21.9924 2.86759 22.6121 3.3852 23.1863 3.95191C23.5641 4.32973 23.9231 4.73021 24.2555 5.14958C25.1963 6.33213 25.9444 7.67714 26.4506 9.13927C26.7075 9.86845 26.9002 10.6241 27.0249 11.4061C27.04 11.493 27.0551 11.5837 27.0665 11.6744C27.1571 12.3053 27.2025 12.9476 27.2025 13.6012Z" fill="white"></path>
<path d="M27.0665 11.4059V15.9396H26.9985C26.8662 16.7217 26.6622 17.4811 26.3977 18.2065C26.1182 18.9924 25.7668 19.7442 25.3474 20.4545C25.1434 20.8096 24.9205 21.1534 24.6787 21.4859C24.214 22.1433 23.6888 22.7554 23.1145 23.3221C22.733 23.6961 22.3287 24.0475 21.9018 24.3762C21.4295 24.7389 20.9308 25.0751 20.4094 25.3774C19.65 25.8194 18.8415 26.1859 17.999 26.4768C17.2698 26.7224 16.5104 26.9113 15.7321 27.036C15.0369 27.1455 14.3266 27.2022 13.6012 27.2022C12.7814 27.2022 11.9804 27.1304 11.1983 26.9906C10.4163 26.8509 9.66066 26.6431 8.93148 26.3786C8.2023 26.1103 7.50335 25.7854 6.8384 25.4001C6.82329 25.3963 6.80817 25.3849 6.79306 25.3774C6.45303 25.1809 6.12056 24.9656 5.79942 24.7389C5.13824 24.278 4.52241 23.7566 3.95191 23.1861C3.5741 22.8083 3.21896 22.404 2.89026 21.9809C2.00618 20.855 1.2959 19.5817 0.80474 18.2065C0.540271 17.4811 0.336253 16.7217 0.204019 15.9396C0.0680062 15.1802 0 14.3982 0 13.601C0 12.8529 0.0604499 12.12 0.177572 11.4059C0.30225 10.6238 0.494934 9.8682 0.751846 9.13902C1.00876 8.39851 1.32612 7.68822 1.70393 7.01194C1.90039 6.64924 2.11953 6.29788 2.34999 5.95785C2.80337 5.28912 3.31719 4.66573 3.88391 4.09145C4.25416 3.70609 4.65087 3.34716 5.07024 3.01091C5.61051 2.57265 6.18856 2.17595 6.79306 1.82458C7.46934 1.43166 8.18719 1.0954 8.93148 0.823379C9.66066 0.558911 10.4163 0.351114 11.1983 0.211324C11.527 0.154652 11.8557 0.105536 12.192 0.0715332H15.0105C15.2523 0.09798 15.4941 0.128205 15.7321 0.165986C16.5104 0.290664 17.2698 0.47957 17.999 0.725148C18.7962 1.00095 19.5631 1.34476 20.2847 1.7528C20.3263 1.77547 20.3678 1.80191 20.4094 1.82458C20.723 2.00593 21.029 2.20239 21.3275 2.41019C21.9924 2.86734 22.6121 3.38495 23.1863 3.95166C23.5641 4.32948 23.9231 4.72996 24.2555 5.14933C25.1963 6.33188 25.9444 7.67689 26.4506 9.13902C26.7075 9.8682 26.9002 10.6238 27.0249 11.4059H27.0665Z" fill="#0052B4"></path>
<path d="M17.9986 0.725392V26.4771C17.2695 26.7226 16.5101 26.9115 15.7318 27.0362C15.0366 27.1458 14.3263 27.2025 13.6009 27.2025C12.7811 27.2025 11.9801 27.1307 11.198 26.9909C10.416 26.8511 9.66033 26.6433 8.93115 26.3788V0.823623C9.66033 0.559155 10.416 0.351358 11.198 0.211568C11.5267 0.154896 11.8554 0.10578 12.1917 0.0717773H15.0101C15.2519 0.0982242 15.4937 0.128449 15.7318 0.16623C16.5101 0.290908 17.2695 0.479814 17.9986 0.725392Z" fill="white"></path>
<path d="M27.0665 11.4063V15.94H26.9985C26.8662 16.7221 26.6622 17.4815 26.3977 18.2069H0.80474C0.540271 17.4815 0.336253 16.7221 0.204019 15.94C0.0680062 15.1806 0 14.3985 0 13.6014C0 12.8533 0.0604499 12.1203 0.177572 11.4063C0.30225 10.6242 0.494934 9.86858 0.751846 9.1394H26.4506C26.7075 9.86858 26.9002 10.6242 27.0249 11.4063H27.0665Z" fill="white"></path>
<path d="M15.732 0.166237V27.0362C15.0368 27.1458 14.3265 27.2025 13.6011 27.2025C12.7813 27.2025 11.9803 27.1307 11.1982 26.9909V0.211575C11.5269 0.154903 11.8556 0.105787 12.1919 0.0717843C12.6528 0.0264468 13.1251 0 13.6011 0C14.0772 0 14.5494 0.0264468 15.0104 0.0717843C15.2522 0.0982311 15.494 0.128456 15.732 0.166237Z" fill="#D80027"></path>
<path d="M27.0665 11.406V15.9397H0.204019C0.0680062 15.1803 0 14.3983 0 13.6011C0 12.853 0.0604499 12.1201 0.177572 11.406H27.0665Z" fill="#D80027"></path>
<path d="M25.3475 20.4548C25.1435 20.8099 24.9205 21.1537 24.6787 21.4862C24.214 22.1436 23.6889 22.7556 23.1146 23.3224C22.733 23.6964 22.3288 24.0478 21.9018 24.3765L17.999 20.4737V18.2068H23.0995L25.3475 20.4548Z" fill="white"></path>
<path d="M24.6787 21.4862C24.214 22.1436 23.6889 22.7556 23.1146 23.3224L17.999 18.2068H21.3993L24.6787 21.4862Z" fill="#D80027"></path>
<path d="M24.2556 5.1497L20.2659 9.1394H17.999V4.03894L20.2848 1.75317C20.3263 1.77584 20.3679 1.80229 20.4095 1.82496C20.7231 2.00631 21.0291 2.20277 21.3276 2.41057C21.9925 2.86772 22.6121 3.38532 23.1864 3.95204C23.5642 4.32985 23.9231 4.73033 24.2556 5.1497Z" fill="white"></path>
<path d="M23.1864 3.95187L17.999 9.13924V5.73893L21.3275 2.4104C21.9925 2.86755 22.6121 3.38516 23.1864 3.95187Z" fill="#D80027"></path>
<path d="M8.93165 6.87247V9.13934H3.83118L1.7041 7.01226C1.90056 6.64956 2.11969 6.2982 2.35016 5.95816C2.80353 5.28944 3.31736 4.66605 3.88408 4.09177C4.25433 3.7064 4.65104 3.34748 5.07041 3.01123L8.93165 6.87247Z" fill="white"></path>
<path d="M8.9311 9.13937H5.53079L2.34961 5.95819C2.80298 5.28946 3.31681 4.66607 3.88353 4.0918L8.9311 9.13937Z" fill="#D80027"></path>
<path d="M8.93135 18.2068V23.3073L6.83827 25.4003C6.82316 25.3966 6.80805 25.3852 6.79293 25.3777C6.4529 25.1812 6.12043 24.9658 5.79929 24.7392C5.13812 24.2782 4.52228 23.7568 3.95179 23.1864C3.57398 22.8085 3.21883 22.4043 2.89014 21.9811L6.66448 18.2068H8.93135Z" fill="white"></path>
<path d="M8.93171 18.2068V21.6071L5.79965 24.7392C5.13848 24.2782 4.52264 23.7568 3.95215 23.1863L8.93171 18.2068Z" fill="#D80027"></path>
<circle cx="13.6012" cy="13.6012" r="13.0912" stroke="white" stroke-width="1.02009"></circle>
</svg>