<svg width="28" height="28" viewBox="0 0 28 28" fill="none" xmlns="http://www.w3.org/2000/svg">
<path d="M27.2025 13.6012C27.2025 14.27 27.1534 14.9311 27.0589 15.5734C26.4506 19.7671 23.9306 23.3375 20.4094 25.3776C19.3893 25.9708 18.2823 26.4317 17.1149 26.7415C16.756 26.8398 16.3857 26.9229 16.0155 26.9871C15.2334 27.1307 14.4249 27.2025 13.6012 27.2025C12.7776 27.2025 11.9691 27.1307 11.187 26.9871C10.8999 26.938 10.6203 26.8776 10.3407 26.8058C9.07882 26.4997 7.88872 26.0124 6.79306 25.3776C3.58921 23.5188 1.21278 20.3981 0.355143 16.688C0.294693 16.431 0.2418 16.1704 0.196462 15.9059C0.0680062 15.1578 0 14.3871 0 13.6012V13.5559C0.00377812 12.9212 0.0491156 12.2978 0.13979 11.6857C0.154903 11.5535 0.173794 11.425 0.196462 11.2966C0.324918 10.5334 0.517603 9.79289 0.774515 9.07882C1.04654 8.29675 1.39413 7.54869 1.80216 6.8384C2.2971 5.97321 2.88271 5.16847 3.55521 4.43929C3.85746 4.09926 4.18238 3.77812 4.52241 3.47965C5.21759 2.85248 5.97699 2.2971 6.79306 1.82483C6.83462 1.80216 6.8724 1.7795 6.91396 1.75683C7.62047 1.35257 8.37232 1.01631 9.15061 0.74429C9.9818 0.457153 10.8508 0.249356 11.7462 0.124678C12.2864 0.0491156 12.8381 0.0113344 13.3934 0.00377812C13.4614 0 13.5332 0 13.6012 0H13.6277C13.6806 0 13.7372 0 13.7901 0.00377812C13.8581 0.00377812 13.9262 0.00377812 13.9942 0.00755624C14.4891 0.0188906 14.9765 0.0604499 15.4563 0.124678C15.5319 0.136012 15.6112 0.147347 15.6868 0.158681C17.3831 0.42315 18.9775 0.997424 20.4094 1.82483C23.9306 3.86502 26.4506 7.43534 27.0589 11.6291C27.1534 12.2713 27.2025 12.9325 27.2025 13.6012Z" fill="white"></path>
<path d="M27.0582 11.6284V15.5728C26.45 19.7665 23.93 23.3368 20.4087 25.377C19.3887 25.9701 18.2817 26.4311 17.1142 26.7409C16.7553 26.8391 16.385 26.9222 16.0148 26.9865H11.1864C10.8992 26.9373 10.6196 26.8769 10.3401 26.8051C9.07816 26.4991 7.88806 26.0117 6.7924 25.377C3.58855 23.5181 1.21212 20.3974 0.354482 16.6873C0.294032 16.4304 0.241138 16.1697 0.195801 15.9052V11.2959C0.324257 10.5327 0.516941 9.79224 0.773853 9.07817C1.04588 8.2961 1.39347 7.54803 1.8015 6.83774C2.29644 5.97255 2.88204 5.16781 3.55455 4.43864C3.8568 4.09861 4.18172 3.77747 4.52175 3.47899C5.21692 2.85183 5.97633 2.29644 6.7924 1.82418C6.83396 1.80151 6.87174 1.77884 6.9133 1.75617C7.61981 1.35191 8.37165 1.01566 9.14995 0.743635C9.98113 0.456498 10.8501 0.248701 11.7455 0.124023H15.4556C15.5312 0.135358 15.6105 0.146692 15.6861 0.158027C17.3825 0.422495 18.9768 0.996769 20.4087 1.82418C23.93 3.86436 26.45 7.43469 27.0582 11.6284Z" fill="#0052B4"></path>
<path d="M7.47336 15.7925L8.34233 17.9045L10.5336 17.2697L9.42665 19.2646L11.2893 20.5831L9.0375 20.9609L9.16974 23.2392L7.46958 21.7166L5.76943 23.2392L5.90166 20.9609L3.6499 20.5831L5.51252 19.2646L4.40553 17.2697L6.59684 17.9045L7.47336 15.7925Z" fill="#F6F6F6"></path>
<path d="M20.3451 18.033L20.8439 19.2382L22.0982 18.8755L21.4635 20.0165L22.5289 20.7683L21.2443 20.9837L21.3199 22.2871L20.3489 21.4182L19.3779 22.2871L19.4535 20.9837L18.1689 20.7683L19.2344 20.0165L18.5997 18.8755L19.854 19.2382L20.3451 18.033Z" fill="#F6F6F6"></path>
<path d="M20.3451 4.60181L20.8439 5.80703L22.0982 5.44433L21.4635 6.58532L22.5289 7.33717L21.2443 7.55252L21.3199 8.85597L20.3489 7.987L19.3779 8.85597L19.4535 7.55252L18.1689 7.33717L19.2344 6.58532L18.5997 5.44433L19.854 5.80703L20.3451 4.60181Z" fill="#F6F6F6"></path>
<path d="M24.8222 9.07886L25.3209 10.2841L26.5752 9.92138L25.9405 11.0624L27.0059 11.8142L25.7214 12.0296L25.7969 13.333L24.826 12.4641L23.855 13.333L23.9306 12.0296L22.646 11.8142L23.7114 11.0624L23.0767 9.92138L24.331 10.2841L24.8222 9.07886Z" fill="#F6F6F6"></path>
<path d="M16.9863 10.1973L17.485 11.4025L18.7393 11.0398L18.1046 12.1808L19.17 12.9326L17.8854 13.148L17.961 14.4514L16.99 13.5825L16.0191 14.4514L16.0946 13.148L14.8101 12.9326L15.8679 12.1808L15.2332 11.0398L16.4875 11.4025L16.9863 10.1973Z" fill="#F6F6F6"></path>
<path d="M22.0232 13.5559L22.5295 14.5382L23.6214 14.7158L22.8431 15.5016L23.0131 16.5935L22.027 16.0948L21.0409 16.5935L21.2109 15.5016L20.4326 14.7158L21.5245 14.5382L22.0232 13.5559Z" fill="#F6F6F6"></path>
<path d="M13.627 0.124023V13.5552H0.195801V11.2959C0.324257 10.5327 0.516941 9.79224 0.773853 9.07817C1.04588 8.2961 1.39346 7.54803 1.8015 6.83774C2.29644 5.97255 2.88204 5.16781 3.55455 4.43864C3.8568 4.09861 4.18172 3.77747 4.52175 3.47899C5.21692 2.85183 5.97632 2.29644 6.7924 1.82418C6.83396 1.80151 6.87174 1.77884 6.9133 1.75617C7.61981 1.35191 8.37165 1.01566 9.14994 0.743635C9.98113 0.456498 10.8501 0.248701 11.7455 0.124023H13.627Z" fill="#F0F0F0"></path>
<path d="M6.91393 1.75684V13.5559H3.55518V4.4393C3.85743 4.09927 4.18234 3.77813 4.52238 3.47966C5.21755 2.85249 5.97695 2.29711 6.79303 1.82484C6.83459 1.80217 6.87237 1.7795 6.91393 1.75684Z" fill="#D80027"></path>
<path d="M13.6278 3.47974V6.83849H1.80225C2.29718 5.9733 2.88279 5.16856 3.55529 4.43938C3.85754 4.09935 4.18246 3.77821 4.52249 3.47974H13.6278Z" fill="#D80027"></path>
<path d="M8.03223 7.96045H11.391L13.6314 10.2009V13.5596L8.03223 7.96045Z" fill="#D80027"></path>
<path d="M6.91406 9.07886L11.3911 13.5559L6.91406 13.9904V9.07886Z" fill="#0052B4"></path>
<path d="M2.43689 9.07886V13.8846L0 13.5559C0.00377812 12.7852 0.0680062 12.0296 0.196462 11.2966C0.324918 10.5334 0.517603 9.79292 0.774515 9.07886H2.43689Z" fill="#0052B4"></path>
<path d="M13.9939 0V2.36133H9.15039V0.74429C10.0496 0.457153 10.9903 0.249356 11.9575 0.124678C12.4298 0.064228 12.9096 0.0264468 13.3932 0.0113344C13.5255 0.00377812 13.6577 0.00377812 13.7899 0.00377812C13.8466 0 13.907 0 13.9675 0H13.9939Z" fill="#0052B4"></path>
<path d="M15.6869 0.158681V0.906749H13.3936V0.00377812C13.4616 0 13.5333 0 13.6014 0H13.6278C13.6807 0 13.7374 0 13.7903 0.00377812C13.8469 0 13.9074 0 13.9678 0H13.9943V0.00755624C14.4892 0.0188906 14.9766 0.0604499 15.4564 0.124678C15.532 0.136012 15.6113 0.147347 15.6869 0.158681Z" fill="#0052B4"></path>
<path d="M1.7266 11.6858V16.688H0.355143C0.294693 16.4311 0.2418 16.1704 0.196462 15.906C0.0680062 15.1579 0 14.3871 0 13.6013V13.556C0.00377812 12.9212 0.0491156 12.2978 0.13979 11.6858H1.7266Z" fill="#0052B4"></path>
<path d="M17.115 25.0491V26.7417C16.7561 26.8399 16.3858 26.923 16.0156 26.9872C15.2335 27.1308 14.425 27.2026 13.6013 27.2026C12.7777 27.2026 11.9692 27.1308 11.1871 26.9872C10.9 26.9381 10.6204 26.8777 10.3408 26.8059V25.0491H17.115Z" fill="#0052B4"></path>
<circle cx="13.6012" cy="13.6012" r="13.0912" stroke="white" stroke-width="1.02009"></circle>
</svg>